<?xml version="1.0" standalone="no"?>
<!DOCTYPE svg PUBLIC "-//W3C//DTD SVG 1.1//EN" "http://www.w3.org/Graphics/SVG/1.1/DTD/svg11.dtd" >
<!--
2013-9-30: Created.
-->
<svg>
<metadata>
Created by iconfont
</metadata>
<defs>

<font id="iconfont" horiz-adv-x="1024" >
  <font-face
    font-family="iconfont"
    font-weight="500"
    font-stretch="normal"
    units-per-em="1024"
    ascent="896"
    descent="-128"
  />
    <missing-glyph />
    
    <glyph glyph-name="x" unicode="x" horiz-adv-x="1001"
d="M281 543q-27 -1 -53 -1h-83q-18 0 -36.5 -6t-32.5 -18.5t-23 -32t-9 -45.5v-76h912v41q0 16 -0.5 30t-0.5 18q0 13 -5 29t-17 29.5t-31.5 22.5t-49.5 9h-133v-97h-438v97zM955 310v-52q0 -23 0.5 -52t0.5 -58t-10.5 -47.5t-26 -30t-33 -16t-31.5 -4.5q-14 -1 -29.5 -0.5
t-29.5 0.5h-32l-45 128h-439l-44 -128h-29h-34q-20 0 -45 1q-25 0 -41 9.5t-25.5 23t-13.5 29.5t-4 30v167h911zM163 247q-12 0 -21 -8.5t-9 -21.5t9 -21.5t21 -8.5q13 0 22 8.5t9 21.5t-9 21.5t-22 8.5zM316 123q-8 -26 -14 -48q-5 -19 -10.5 -37t-7.5 -25t-3 -15t1 -14.5
t9.5 -10.5t21.5 -4h37h67h81h80h64h36q23 0 34 12t2 38q-5 13 -9.5 30.5t-9.5 34.5q-5 19 -11 39h-368zM336 498v228q0 11 2.5 23t10 21.5t20.5 15.5t34 6h188q31 0 51.5 -14.5t20.5 -52.5v-227h-327z" />
    

    
    <glyph glyph-name="xunzhang" unicode="&#59002;" d="M715.945354 586.409354 715.945354 707.072l-71.68 0 0-196.950646L715.945354 586.409354zM618.496 314.537354c3.414646 0 6.656-2.217354 7.68-5.289354 1.193354-3.241354-0.169354-6.656-2.902646-8.534646l-55.808-37.888 21.334646-61.44c1.024-3.241354-0.169354-6.656-3.072-8.534646-1.366646-1.024-3.072-1.536-4.777354-1.536-1.536 0-3.241354 0.512-4.777354 1.536l-55.638646 37.888-55.638646-37.888c-2.902646-2.048-6.825354-2.048-9.558646 0-2.902646 1.878646-4.096 5.289354-3.072 8.534646l21.334646 61.44-55.808 37.888c-2.729354 1.878646-4.096 5.289354-2.902646 8.534646 1.024 3.072 4.265354 5.289354 7.68 5.289354L491.52 314.537354l21.334646 61.44c2.048 6.313354 13.312 6.313354 15.36 0l21.334646-61.44L618.496 314.537354zM715.945354 274.601354c0 108.374646-87.721354 196.608-195.414646 196.608S325.12 382.976 325.12 274.601354s87.721354-196.608 195.414646-196.608S715.945354 166.230646 715.945354 274.601354zM325.12 707.072l0-120.662646 71.68-76.288L396.8 707.072 325.12 707.072zM605.184 707.072l-169.302646 0 0-198.825354c26.454646 9.728 54.784 15.36 84.649354 15.36 29.865354 0 58.198646-5.632 84.649354-15.36L605.180062 707.072zM0 384c0-282.793354 229.206646-512 512-512s512 229.206646 512 512S794.793354 896 512 896 0 666.793354 0 384zM768 731.305354l0-165.718646-91.648-97.622646C732.16 422.230646 768 352.598646 768 274.601354 768 137.046646 657.238646 25.6 520.534646 25.6s-247.465354 111.446646-247.465354 249.001354c0 77.993354 35.84 147.625354 91.648 193.366646l-91.648 97.622646L273.069292 733.696c0.512 13.993354 11.776 25.088 25.769354 25.088 1.024 0 1.536 0.342646 1.878646 0.681354l438.953354 0c0.342646-0.342646 0.854646-0.681354 1.878646-0.681354 14.336 0 25.942646-11.606646 25.942646-26.112C767.488 731.990646 767.830646 731.648 768 731.305354z"  horiz-adv-x="1024" />

    
    <glyph glyph-name="lajitong" unicode="&#58898;" d="M963.764706 655.058824 963.764706 594.823529 903.529412 594.823529 903.529412-7.529412C903.529412-78.095059 823.838118-128 752.941176-128L271.058824-128C200.161882-128 120.470588-78.095059 120.470588-7.529412L120.470588 594.823529 60.235294 594.823529 60.235294 655.058824 30.117647 655.058824 30.117647 685.176471C30.117647 755.742118 79.691294 805.647059 150.588235 805.647059L301.176471 805.647059C315.542588 860.702118 361.923765 896 421.647059 896L602.352941 896C662.076235 896 708.427294 860.702118 722.823529 805.647059 722.823529 805.647059 828.867765 805.647059 873.411765 805.647059 944.399059 806.671059 993.912471 755.922824 993.882353 685.176471L993.882353 655.058824 963.764706 655.058824ZM180.705882-7.529412C180.705882-42.857412 235.640471-67.764706 271.058824-67.764706L752.941176-67.764706C788.359529-67.764706 843.294118-42.857412 843.294118-7.529412L843.294118 594.823529 180.705882 594.823529 180.705882-7.529412ZM602.352941 835.764706 421.647059 835.764706C397.974588 835.764706 372.555294 824.681412 361.411765 805.647059L662.588235 805.647059C651.444706 824.681412 626.025412 835.764706 602.352941 835.764706ZM873.411765 745.411765 150.588235 745.411765C115.169882 745.411765 90.352941 690.386824 90.352941 655.058824L180.705882 655.058824 331.294118 655.058824 692.705882 655.058824 843.294118 655.058824 933.647059 655.058824C933.647059 690.386824 908.860235 745.411765 873.411765 745.411765ZM692.705882 52.705882C674.936471 52.705882 662.588235 65.144471 662.588235 82.823529L662.588235 444.235294C662.588235 461.914353 674.936471 474.352941 692.705882 474.352941 710.475294 474.352941 722.823529 461.914353 722.823529 444.235294L722.823529 82.823529C722.823529 65.144471 710.475294 52.705882 692.705882 52.705882ZM512 52.705882C494.230588 52.705882 481.882353 65.144471 481.882353 82.823529L481.882353 444.235294C481.882353 461.914353 494.230588 474.352941 512 474.352941 529.769412 474.352941 542.117647 461.914353 542.117647 444.235294L542.117647 82.823529C542.117647 65.144471 529.769412 52.705882 512 52.705882ZM331.294118 52.705882C313.524706 52.705882 301.176471 65.144471 301.176471 82.823529L301.176471 444.235294C301.176471 461.914353 313.524706 474.352941 331.294118 474.352941 349.063529 474.352941 361.411765 461.914353 361.411765 444.235294L361.411765 82.823529C361.411765 65.144471 349.063529 52.705882 331.294118 52.705882Z"  horiz-adv-x="1024" />

    
    <glyph glyph-name="laba" unicode="&#58880;" d="M523.023 719.197c-51.13-41.089-158.143-98.826-235.065-154.301l-0.104-0.071c-0.902-0.495-1.767-3.633-2.635-4.092-9.116-5.252-12.416-11.319-61.779-11.319h-82.447c-24.684 0-54.964-28.479-54.964-54.967v-247.336c0-26.419 28.999-27.485 54.964-27.485h82.447c48.275-6.75 52.559-7.082 61.744-10.973 0.868-0.495 1.767-3.526 2.635-4.089l0.104-0.071c74.531-55.511 182.236-117.766 235.032-157.159 15.877-11.919 57.751-38.615 57.751 34.882v604.608c0 73.638-42.188 44.894-57.682 32.374zM910.49 412.002h-192.374c-18.653 0-27.482-8.544-27.482-27.485 0-19.010 8.83-27.482 27.482-27.482h192.374c18.652 0 27.482 8.473 27.482 27.482 0 18.94-8.83 27.485-27.482 27.485zM674.787 556.995c8.704-15.552 25.998-19.433 38.618-8.676l135.061 115.331c12.617 10.751 15.772 32.162 7.072 47.717l-4.922 8.852c-8.769 15.591-26.039 19.539-38.687 8.748l-135.028-115.401c-12.581-10.76-15.841-32.096-7.072-47.791l4.958-8.781zM713.337 221.137c-12.551 10.757-29.917 6.876-38.618-8.712l-4.922-8.781c-8.769-15.623-5.546-36.999 7.072-47.753l134.989-115.331c12.617-10.793 29.953-6.876 38.687 8.676l4.925 8.781c8.734 15.591 5.579 37.002-7.038 47.725l-135.095 115.395z"  horiz-adv-x="1024" />

    
    <glyph glyph-name="clearx" unicode="&#58881;" d="M589.568 384l129.17 129.17c9.926 9.926 16.065 23.638 16.065 38.784 0 30.292-24.557 54.849-54.849 54.849-15.146 0-28.858-6.139-38.784-16.065l-129.17-129.17-129.17 129.17c-9.926 9.926-23.638 16.065-38.784 16.065-30.292 0-54.849-24.557-54.849-54.849 0-15.146 6.139-28.858 16.065-38.784l129.17-129.17-129.17-129.17c-9.926-9.926-16.065-23.638-16.065-38.784 0-30.292 24.557-54.849 54.849-54.849 15.146 0 28.858 6.139 38.784 16.065l129.17 129.17 129.17-129.17c9.926-9.926 23.638-16.065 38.784-16.065 30.292 0 54.849 24.557 54.849 54.849 0 15.146-6.139 28.858-16.065 38.784l-129.17 129.17zM512-128c-282.77 0-512 229.23-512 512s229.23 512 512 512 512-229.23 512-512-229.23-512-512-512z"  horiz-adv-x="1024" />

    
    <glyph glyph-name="dianx" unicode="&#58882;" d="M776 652.8c9.728 0 17.6-7.8848 17.6-17.6V230.4c0-9.728-7.8848-17.6-17.6-17.6H587.2768l21.12-52.8h73.9968a17.6 17.6 0 0 0 0-35.2H327.2064a17.6 17.6 0 0 0 0 35.2h88.3968l21.12 52.8H248c-9.728 0-17.6 7.8848-17.6 17.6V635.2c0 9.728 7.8848 17.6 17.6 17.6h528zM453.5168 160h116.9664l-21.12 52.8h-74.7264L453.504 160z m304.8832 88V617.6h-492.8v-369.6h492.8z m-49.28 337.92c9.728 0 17.6-7.8848 17.6-17.6v-271.04c0-9.728-7.8848-17.6-17.6-17.6H314.88c-9.728 0-17.6 7.8848-17.6 17.6V568.32c0 9.728 7.8848 17.6 17.6 17.6h394.24zM691.52 314.88V550.72h-359.04V314.88h359.04z"  horiz-adv-x="1024" />

    
    <glyph glyph-name="test" unicode="&#58883;" d="M102.4 691.2h102.4v-51.2h-102.4zM102.4 409.6h102.4v-51.2h-102.4zM102.4 128h102.4v-51.2h-102.4zM307.2 691.2h614.4v-51.2h-614.4zM307.2 409.6h614.4v-51.2h-614.4zM307.2 128h614.4v-51.2h-614.4z"  horiz-adv-x="1024" />

    
    <glyph glyph-name="chux" unicode="&#58884;" d="M813.7856 614.4H210.2144c-10.0608 0-18.2144-8.1536-18.2144-18.2144v-428.5568c0-10.0608 8.1536-18.2272 18.2144-18.2272h603.5712c10.0608 0 18.2144 8.1664 18.2144 18.2272v428.544c0 10.0736-8.1536 18.2272-18.2144 18.2272zM339.5712 185.8432h-111.1296v59.8272a76.736 76.736 0 0 1 111.1296 0v-59.8272z m-96.1024 113.024a40.576 40.576 0 0 0 40.5376 40.5248 40.576 40.576 0 0 0 40.5376-40.5376 40.576 40.576 0 0 0-40.5376-40.5376 40.576 40.576 0 0 0-40.5376 40.5376z m96.1024 53.1712a76.736 76.736 0 0 1-111.1296 0v225.92h111.1296v-225.92z m455.9872-166.1952H376.0128V577.9584h419.5456V185.856z m-47.36 362.9696H423.3728c-10.0608 0-18.2144-8.1536-18.2144-18.2144V233.216c0-10.0608 8.1536-18.2272 18.2144-18.2272h324.8256c10.048 0 18.2144 8.1664 18.2144 18.2272V530.5984c0 10.0608-8.1664 18.2144-18.2144 18.2144z m-18.2272-206.3872H532.6848a18.2272 18.2272 0 0 1 0-36.4288H729.984v-54.5664H441.6V421.376h193.3824a18.2272 18.2272 0 0 1 0 36.4416H441.6v54.5536h288.384v-169.9456z"  horiz-adv-x="1024" />

    
    <glyph glyph-name="caix" unicode="&#58885;" d="M748.6464 665.6c9.1264 0 16.5248-7.3984 16.5248-16.5376v-125.1072c0-9.1264-7.3984-16.5376-16.5248-16.5376H706.816l44.1856-386.6112A16.5376 16.5376 0 0 0 734.592 102.4h-66.1248a16.5248 16.5248 0 0 0-16.4224 14.656l-14.464 126.4384H482.496a16.5376 16.5376 0 0 0 0 33.0624h151.3216l-26.368 230.8736H413.7344l-10.112-88.4736h126.016a16.5376 16.5376 0 0 0 0-33.0624h-129.792l-30.72-268.8384A16.5376 16.5376 0 0 0 352.7168 102.4h-66.1376a16.5248 16.5248 0 0 0-16.4224 18.4064l44.1856 386.6112h-41.8048A16.5376 16.5376 0 0 0 256 523.9552v125.1072c0 9.1392 7.3984 16.5376 16.5376 16.5376h476.1088zM337.9584 135.4624l42.5088 371.968h-32.8448l-42.5088-371.968h32.8448z m378.112 0l-42.5216 371.968h-32.8448l42.5088-371.968h32.8448z m16.0384 405.0304v92.0448H289.0624v-92.0448h443.0464z"  horiz-adv-x="1024" />

    
    <glyph glyph-name="Groupx" unicode="&#58887;" d="M514.202 343.040c111.923 1.126 202.598 92.544 202.598 204.749 0 112.922-91.878 204.851-204.8 204.851s-204.8-91.904-204.8-204.851c0-111.488 89.472-202.445 200.269-204.621l4.48 0.102 2.253-0.256zM163.84 38.144c22.656 160.358 169.574 284.16 347.546 284.416h0.794c178.278-0.077 325.478-124.109 347.981-284.749-91.622-26.65-213.606-42.906-347.546-42.906-134.528 0-257.024 16.384-348.774 43.264z"  horiz-adv-x="1024" />

    
    <glyph glyph-name="didianx" unicode="&#58888;" d="M520.533333 759.466667C365.1584 759.466667 238.933333 633.378133 238.933333 478.481067c0-50.9952 13.994667-99.9424 38.980267-142.336 27.886933-47.2064 228.693333-319.146667 228.693333-319.146667 2.6624-5.188267 8.192-8.465067 13.9264-8.465067 5.802667 0 11.127467 3.242667 13.9264 8.430934 0 0 200.874667 272.0768 228.693334 319.214933a280.029867 280.029867 0 0 1 38.980266 142.301867C802.133333 633.378133 675.703467 759.466667 520.533333 759.466667z m8.533334-409.6c-65.877333 0-119.466667 53.794133-119.466667 119.466666 0 65.9456 53.589333 119.466667 119.466667 119.466667s119.466667-53.589333 119.466666-119.466667c0-65.672533-53.521067-119.466667-119.466666-119.466666z"  horiz-adv-x="1024" />

    
    <glyph glyph-name="eyex" unicode="&#58889;" d="M985.7024 402.773333l-55.5008 75.025067c16.110933 12.4928 32.1536 25.736533 48.059733 39.7312a21.230933 21.230933 0 0 1-27.989333 31.8464c-108.919467-95.675733-222.754133-155.2384-338.3296-177.083733-92.0576-17.408-185.685333-11.0592-278.357333 18.875733-83.080533 26.794667-150.050133 67.959467-191.624534 97.792-44.885333 32.221867-70.656 58.504533-71.338666 59.221333a21.1968 21.1968 0 1 1-30.5152-29.457066c0.955733-1.024 20.923733-21.572267 56.900266-49.220267l-49.937066-64.512a21.1968 21.1968 0 1 1 33.553066-25.941333l50.756267 65.536a761.719467 761.719467 0 0 1 151.4496-80.349867L249.173333 291.566933a21.1968 21.1968 0 1 1 38.5024-17.8176l35.328 76.253867c54.9888-17.5104 110.353067-27.306667 165.5808-29.320533v-80.759467a21.1968 21.1968 0 1 1 42.427734 0v80.725333c29.354667 1.024 58.606933 4.3008 87.722666 9.762134a622.6944 622.6944 0 0 1 93.047467 25.088l37.239467-77.346134a21.1968 21.1968 0 1 1 38.229333 18.432l-35.805867 74.376534a785.373867 785.373867 0 0 1 144.657067 81.578666l55.5008-75.025066a21.162667 21.162667 0 1 1 34.133333 25.258666z"  horiz-adv-x="1024" />

    
    <glyph glyph-name="downGx" unicode="&#58890;" d="M512 179.2l-358.4 358.4h716.8z"  horiz-adv-x="1024" />

    
    <glyph glyph-name="hot" unicode="&#58891;" d="M141.824 424.4992l3.9936 37.504h19.4944c3.9936 0 6.656 1.4976 7.9744 4.4928l9.5232 32.9984h50.9952l-19.0976-52.4928c-5.5936-15.0016-16.384-22.5024-32.384-22.5024h-40.512z m113.3952 22.5024l-4.9152 52.4928h49.4976l2.6496-31.488c0.3584-6.016 4.096-8.512 11.2-7.5008h25.4976l-3.84-36.0064h-56.9984c-14.9888 0-22.6944 7.5008-23.0912 22.5024z m92.992 0l-6.2464 54.0032h46.5024l5.632-31.5008c0.4736-4.992 2.7648-7.0016 6.8736-6.016h15.0016l-3.9936-37.4912h-43.5072c-12.1088-0.9984-18.8544 6.0032-20.2624 20.992z m78.1568 1.4976l-6.4 52.5056h48l2.6368-31.5008c0.4736-4.992 2.2656-7.0016 5.376-6.016h13.4912l-3.9936-37.4912h-37.504c-15.104-0.9984-22.3104 6.5024-21.6064 22.5024z m-116.8512 296.9984h72l6.912 22.5024h50.9952l-6.912-22.5024h72.0128L484.864 560.9984c-0.5376-4.992 0.7552-7.0016 3.8528-6.0032h10.496l-4.6208-43.4944h-42.0096c-14.1056-0.9984-19.4304 9.9968-15.9744 32.9984l16.2944 152.9984h-32.9984l-32.0256-103.5008h39.0016l-4.3136-40.4992h-43.5072l-10.5344-28.4928c-3.1744-11.008-12.7104-16-28.5952-15.0016H284.416l4.1472 39.0016h30.0032c3.008 0 5.1584 1.4976 6.4768 4.4928l1.664 1.4976 2.1376 6.016-23.68 115.4944h44.992l5.7984-30.0032 14.4384 50.9952h-65.9968l5.12 48zM170.752 696l4.9536 46.5024h59.9936l2.3936 22.5024h51.008l-2.4064-22.5024h13.504l-4.6336-43.5072h-13.504l-2.0736-19.4944h13.504l-4.6336-43.4944h-13.504l-10.24-96c-1.3312-22.016-11.904-32-31.6928-30.0032h-64.4992l4.16 39.0016h34.496c4.9024-1.0112 7.6672 1.4976 8.3072 7.5008l3.0336 28.4928-10.5984-15.0016c-4.9536-8.9984-13.3376-12.4928-25.1136-10.496h-27.008l3.84 35.9936h13.504c4.8896-0.9984 8.6016 1.0112 11.136 6.016l43.1872 67.4944 2.88 26.9952H170.752z m463.8336 7.5008L620.4544 768h52.5056l5.9648-28.5056c-0.5376-4.992 1.7536-6.9888 6.8608-5.9904h13.4912l-4.9536-46.5024h-37.504c-13.0944-0.9984-20.5184 4.4928-22.2336 16.4992z m74.7776 11.9936l5.12 48h187.4944l-31.488-295.488c-2.2016-30.0032-17.2416-44.5056-45.1328-43.5072h-93.0048l4.8 45.0048h70.5024c4.8896-0.9984 7.6544 1.4976 8.2944 7.5008l25.4208 238.4896H709.3632z m-171.136-296.9984l33.0752 310.5024h55.5008l-33.088-310.5024h-55.5008zM223.936 280.2944H126.464l5.4272 51.008h97.5104l-5.44-51.008z m25.8816-10.496l5.12 48H407.936c4.8896-0.9984 7.6032 0.9984 8.1408 6.0032l0.64 6.0032h50.9952l-3.52-32.9984c-1.1264-20.0064-12.5824-29.0048-34.368-27.008h-46.5024l-4.16-39.0016H455.68l-4.9536-46.5024h-78.0032l-4.48-41.984h78.0032l-11.9936-112.512c-0.9728-27.9936-14.3616-40.9984-40.1536-39.0016H218.624l16.128 151.5008h73.5104l4.48 41.9968h-73.5104l4.9536 46.5024h75.008l4.1472 39.0016h-73.4976z m-110.6304-80.9984H115.2l4.9536 46.5024h78.0032l-20.4672-192c-1.6384-6.0032 0.6016-8.4992 6.7072-7.5008h17.9968l-4.9536-46.5024h-54.0032c-19.0976-0.9984-26.432 9.9968-21.9776 32.9984l17.7408 166.5024z m245.0944-93.0048h-96l-6.2336-58.496h83.9936c8.7936-1.9968 13.2096 1.9968 13.2864 12.0064l4.9536 46.4896z m312.6272 235.5072H866.432l-4.6336-43.5072h-65.9968l-2.7136-25.4976h64.4992l-15.9872-150.0032h-41.9968l11.3408 106.496H728.448l-11.5072-107.9936h-41.9968l15.9872 150.0032h58.496l2.88 27.008h-60.0064l4.6336 43.4944z m-63.872-135.0016h-115.5072l14.2208 133.504h146.9952l-10.8672-102.016c-1.4464-22.9888-13.056-33.4848-34.8544-31.488z m-6.528 79.488l2.0608 19.5072h-52.4928l-2.0736-19.4944h52.4928z m-4.3264-40.4864l1.6 15.0016h-52.5056l-2.0736-19.5072h48c1.9968 0 3.6608 1.4976 4.9792 4.5056z m115.5072-112.512l8.64 81.0112h43.4944l-8.1536-76.5056 16.8448-39.0016c2.368-5.9904 6.0416-8.9984 11.0464-8.9984h30.0032l-3.6864-34.496H790.912c-12.1088-0.9984-20.1344 3.4944-24.064 13.504l-9.28 25.4976-17.5616-24c-8.064-9.9968-17.6-15.0016-28.5952-15.0016h-43.5072l3.52 32.9984h27.008c5.888-0.9984 10.7008 1.9968 14.464 8.9984l24.832 36.0064zM572.928 40.3072l10.3936 97.5104h-76.5056l4.8 44.992h154.496l-4.7872-44.992h-34.5088l-3.2-30.0032h34.5088l-3.9936-37.504h-34.5088l-4.48-41.9968c5.7984-1.9968 11.7376-2.496 17.8432-1.4976h201.0112l-4.0064-37.504H591.488c-16.896 0.9984-31.7056 7.5008-44.4288 19.4944-7.3856-12.992-17.5744-19.4944-30.5792-19.4944h-25.4976l3.6736 34.496c8.9984 0 13.376 3.5072 13.12 10.496l9.4336 88.512h43.4944l-6.4-60.0064c-0.512-4.992 5.6832-12.4928 18.6112-22.5024z"  horiz-adv-x="1024" />

    
    <glyph glyph-name="downyx" unicode="&#58892;" d="M512 179.2l-358.4 358.4h716.8z"  horiz-adv-x="1024" />

    
    <glyph glyph-name="leftx" unicode="&#58893;" d="M237.312 384.077c0 6.477 2.458 12.954 7.424 17.869l326.118 326.144c4.625 4.522 10.959 7.311 17.944 7.311 7.063 0 13.459-2.852 18.102-7.466 4.673-4.611 7.569-11.016 7.569-18.098 0-7.005-2.834-13.349-7.417-17.947l-307.891-307.891 307.891-307.891c9.728-9.702 9.856-26.061-0.154-36.045-4.612-4.674-11.017-7.57-18.099-7.57-7.005 0-13.349 2.834-17.947 7.417l-326.143 326.169c-4.525 4.564-7.322 10.849-7.322 17.787 0 0.011 0 0.021 0 0.032z"  horiz-adv-x="1024" />

    
    <glyph glyph-name="huizhanx" unicode="&#58894;" d="M493.082 97.408l-202.598-111.77c-24.832-13.696-41.267-2.048-36.736 25.651l42.394 259.405-178.611 182.707c-19.84 20.275-13.133 40.192 14.72 44.442l245.837 37.504 110.694 235.366c12.083 25.702 31.642 25.805 43.776 0l110.694-235.366 245.837-37.504c27.955-4.25 34.509-24.218 14.72-44.442l-172.544-176.512-238.182-179.456zM748.416 253.901l39.654-242.611c4.557-27.878-11.699-39.475-36.736-25.651l-207.206 114.33 204.288 153.933z"  horiz-adv-x="1024" />

    
    <glyph glyph-name="rx" unicode="&#58895;" d="M767.36 384.085c0 0.008 0 0.017 0 0.026 0 9.31-3.784 17.736-9.898 23.824l-434.902 434.86c-6.17 6.028-14.618 9.746-23.934 9.746-9.424 0-17.958-3.805-24.153-9.961-6.222-6.151-10.077-14.688-10.077-24.126 0-9.353 3.786-17.822 9.908-23.958l410.495-410.495-410.453-410.496c-6.040-6.172-9.768-14.629-9.768-23.956 0-9.413 3.796-17.939 9.94-24.131 6.152-6.234 14.698-10.098 24.147-10.098 9.343 0 17.803 3.777 23.938 9.888l434.858 434.9c6.013 6.085 9.728 14.453 9.728 23.689 0 0.027-0 0.054-0 0.081z"  horiz-adv-x="1024" />

    
    <glyph glyph-name="upx" unicode="&#58896;" d="M512 588.799l-358.4-358.4h716.8z"  horiz-adv-x="1024" />

    
    <glyph glyph-name="star-onx" unicode="&#58897;" d="M512 76.8l-300.954-158.208 57.498 335.104-243.507 237.312 336.486 48.896 150.477 304.896 150.477-304.896 336.486-48.896-243.507-237.312 57.498-335.104z"  horiz-adv-x="1024" />

    
    <glyph glyph-name="jux" unicode="&#58899;" d="M717.0304 665.6H297.344c-8.704 0-15.744-7.0144-15.744-15.6672v-531.8656c0-8.6528 7.04-15.6672 15.744-15.6672h419.6864c8.6912 0 15.744 7.0144 15.744 15.6672V649.9328c0 8.6528-7.0528 15.6672-15.744 15.6672zM313.088 634.2656h178.2272v-369.7152H313.088V634.2656z m388.1984-500.5312H313.088V233.216h388.1984v-99.4816z m0 130.816H523.0592V634.2656h178.2272v-369.7152zM558.8736 523.0336c-8.704 0-15.744-7.0144-15.744-15.6672v-68.9152c0-8.6528 7.04-15.6672 15.744-15.6672 8.704 0 15.744 7.0144 15.744 15.6672v68.9152c0 8.6528-7.04 15.6672-15.744 15.6672z m-103.3728 0c8.6912 0 15.744-7.0144 15.744-15.6672v-68.9152c0-8.6528-7.0528-15.6672-15.744-15.6672-8.704 0-15.744 7.0144-15.744 15.6672v68.9152c0 8.6528 7.04 15.6672 15.744 15.6672z m87.104-308.224c8.704 0 15.744-7.0144 15.744-15.6672v-21.9392c0-8.6528-7.04-15.6672-15.744-15.6672h-70.8352c-8.704 0-15.744 7.0144-15.744 15.6672v21.9392c0 8.6528 7.04 15.6672 15.744 15.6672 8.6912 0 15.744-7.0144 15.744-15.6672v-6.272h39.3472v6.272c0 8.6528 7.04 15.6672 15.744 15.6672z"  horiz-adv-x="1024" />

    
    <glyph glyph-name="lockx" unicode="&#58900;" d="M654.848 439.04v132.864c0 38.912-14.8736 75.2128-42.0352 102.656A140.544 140.544 0 0 1 512 716.8a140.544 140.544 0 0 1-100.8128-42.24 144.6912 144.6912 0 0 1-42.0352-102.656v-132.864H256V51.2h512V439.04h-113.152z m148.1472 51.2c8.96 0 16.2048-7.3216 16.2048-16.384v-457.472c0-9.0368-7.2448-16.384-16.2048-16.384H221.0048A16.3072 16.3072 0 0 0 204.8 16.384V473.856c0 9.0624 7.2448 16.384 16.2048 16.384h96.9472v81.664c0 52.3776 20.1984 101.632 56.832 138.6752A191.744 191.744 0 0 0 512 768a191.744 191.744 0 0 0 137.216-57.4208 195.8912 195.8912 0 0 0 56.832-138.6752v-81.664h96.9472zM563.2 286.72c0-13.5936-6.656-25.7024-17.0752-34.1248V209.92c0-16.9728-15.2832-30.72-34.1248-30.72s-34.1248 13.7472-34.1248 30.72v42.6752C467.456 261.0432 460.8 273.152 460.8 286.72c0 25.4464 22.912 46.08 51.2 46.08s51.2-20.6336 51.2-46.08z"  horiz-adv-x="1024" />

    
    <glyph glyph-name="menx" unicode="&#58901;" d="M776.0512 665.6c9.1264 0 16.5248-7.4496 16.5376-16.6272v-529.9456c0-9.1776-7.4112-16.6272-16.5376-16.6272h-79.4368a100.1984 100.1984 0 0 0-52.352 14.528H378.7264A100.1984 100.1984 0 0 0 326.3616 102.4h-79.4368A16.576 16.576 0 0 0 230.4 119.0272V648.9728c0 9.1776 7.3984 16.6272 16.5248 16.6272H776.064z m-232.9216-33.2544v-24.1408c0-98.8672 74.0992-180.6336 169.344-192.128 0.4096 0.0384 0.8064 0.0768 1.216 0.0768h45.824v216.192H543.1424z m-279.68 0v-216.192h45.8368c0.4096 0 0.8064-0.0512 1.216-0.0768 95.2576 11.4944 169.344 93.2608 169.344 192.128v24.1408H263.4624z m121.856-462.336a67.9296 67.9296 0 0 1-0.3456 68.5056L300.5184 381.824c-4.3264-0.256-8.6784-0.384-13.056-0.384h-24v-245.7856h62.912a67.1232 67.1232 0 0 1 58.9312 34.3552z m26.7136-19.84h198.9376a100.992 100.992 0 0 0-1.4592 105.152l77.44 131.4304c-71.6928 15.8976-130.688 66.2272-158.912 132.8128v-249.5872c0-9.1776-7.4112-16.6272-16.5376-16.6272a16.576 16.576 0 0 0-16.5248 16.6272V519.5648c-28.224-66.5856-87.2192-116.9152-158.9248-132.8128L413.44 255.3984c18.56-31.872 18.7648-69.9392 0.5504-101.9264a110.464 110.464 0 0 0-1.9712-3.2896z m347.5072-14.5152V381.44h-24c-4.3904 0-8.7296 0.128-13.056 0.384l-84.48-143.3728a67.8912 67.8912 0 0 1-0.3072-68.4416 67.1232 67.1232 0 0 1 58.9312-34.3552h62.912z"  horiz-adv-x="1024" />

    
    <glyph glyph-name="phonex" unicode="&#58902;" d="M845.4144 193.536c1.467733-1.365333-7.236267 8.738133-7.236267 8.738133s-8.192 9.557333-29.5936 27.306667a724.650667 724.650667 0 0 1-56.797866 42.5984 1166.7456 1166.7456 0 0 1-34.440534 22.016l-15.291733 7.68c-6.724267 3.310933-17.92 3.6864-25.838933 0.955733a32.017067 32.017067 0 0 1-16.384-13.175466c1.262933 2.321067-4.949333-4.5056-17.578667-27.067734-5.461333-9.8304-11.776-23.688533-19.456-37.341866-10.3424-18.500267-37.2736-36.829867-64.1024-21.640534-34.030933 19.285333-77.789867 45.8752-122.709333 88.541867-52.053333 49.390933-80.520533 87.278933-96.699734 123.323733-5.870933 13.1072-3.208533 40.584533 18.295467 51.063467 21.265067 10.3424 33.450667 12.970667 46.8992 21.026133 12.151467 7.5776 9.762133 5.051733 23.893333 14.336 0.6144 0.443733 5.12 4.369067 5.768534 4.778667 0 0 1.024 1.092267 1.911466 1.9456a26.624 26.624 0 0 1 6.690134 30.6176l-1.911467 5.7344s-10.24 23.210667-25.838933 49.7664a517.632 517.632 0 0 1-29.661867 44.032c-25.2928 33.655467-47.8208 44.032-47.8208 44.032s-6.314667 3.345067-9.557333 4.778667c-12.834133 5.4272-24.234667 3.857067-35.4304-0.955734-24.200533-8.942933-37.9904-21.162667-56.695467-36.522666-40.925867-33.655467-69.597867-80.384-63.863467-121.173334 8.9088-63.761067 88.9856-204.253867 193.672534-303.616 104.721067-99.362133 252.757333-175.4112 319.829333-183.773866 45.124267-5.768533 83.285333 17.271467 121.344 52.3264 13.380267 12.322133 30.890667 32.5632 39.867733 51.780266 5.051733 10.8544-1.262933 47.889067-1.262933 47.889067z"  horiz-adv-x="1024" />

    
    <glyph glyph-name="mine" unicode="&#58903;" d="M136.533333 23.074133c0 148.411733 90.3168 277.435733 219.374934 335.530667 51.6096-25.8048 103.2192-45.192533 167.765333-45.192533 64.512 0 116.1216 19.387733 167.765333 51.643733 129.024-58.094933 219.374933-187.118933 219.374934-335.530667C910.813867-131.754667 136.533333-131.754667 136.533333 23.074133z m567.808 406.493867c-25.838933-25.8048-51.643733-45.1584-83.899733-58.0608-32.256-6.485333-64.512-19.3536-96.768-19.3536-32.256 0-70.997333 12.9024-103.253333 19.3536-32.256 12.9024-58.0608 32.256-83.8656 58.0608-25.8048 19.3536-45.1584 51.6096-58.0608 83.8656a258.901333 258.901333 0 0 0-19.3536 96.802133c0 32.256 6.4512 64.512 19.3536 96.768 12.9024 32.256 32.256 58.094933 58.026666 83.899734 25.838933 19.3536 51.643733 38.7072 83.899734 51.6096 32.256 12.9024 64.512 19.3536 103.253333 19.3536 32.256 0 70.997333-6.4512 96.768-19.3536 25.8048-12.9024 58.0608-32.256 83.899733-51.6096 25.8048-25.8048 45.1584-51.643733 58.026667-83.899734 12.936533-32.256 19.387733-64.512 19.387733-96.768 0-32.256-6.485333-64.512-19.3536-96.802133-12.9024-32.256-32.256-64.512-58.0608-83.8656z"  horiz-adv-x="1024" />

    
    <glyph glyph-name="phonex1" unicode="&#58904;" d="M512 64a38.4 38.4 0 1 1 76.8 0 38.4 38.4 0 0 1-76.8 0zM358.4 179.2l460.8 0 0-51.2-460.8 0 0 51.2ZM281.6 0h486.4V742.4H281.6v-742.4zM230.4 767.8464A25.5488 25.5488 0 0 0 256.0768 793.6h537.4464A25.5744 25.5744 0 0 0 819.2 767.8464v-793.2928A25.5488 25.5488 0 0 0 793.5232-51.2H256.0768A25.5744 25.5744 0 0 0 230.4-25.4464V767.8464z"  horiz-adv-x="1024" />

    
    <glyph glyph-name="mingzix" unicode="&#58905;" d="M230.4 67.7376c0-34.0224 127.1296-67.7376 285.3888-67.072 159.744 0.64 285.5936 35.7632 285.5936 72.2432 0 102.0416-58.88 194.5856-149.3248 240.5888-44.3648-25.6-86.9888-38.0672-136.192-38.0672-47.0016 0-87.1424 10.8288-134.912 33.4848C289.792 263.168 230.4 170.24 230.4 67.7376z m-51.2 0c0 126.8736 76.16 241.1008 191.3856 292.9408l11.0848 4.992 10.8544-5.4272c46.3872-23.1936 81.7664-33.6128 123.3664-33.6128 43.4176 0 80.0768 11.8784 121.2416 37.6064l11.5968 7.2448 12.4672-5.632c115.2256-51.84 191.3856-166.0672 191.3856-292.9408 0-162.3552-673.3824-165.1456-673.3824-5.1712z m463.7696 395.9296l2.7392 2.3808c14.6944 11.008 28.16 31.232 38.2464 56.4224a182.5024 182.5024 0 0 1 13.7216 68.2752c0 22.6048-4.5312 45.312-13.7216 68.2752-8.192 20.4544-20.4544 38.016-39.7056 57.4976a449.6896 449.6896 0 0 1-62.0288 37.9904c-15.616 7.7824-42.1376 12.8512-66.3296 12.8512-27.2128 0-49.9712-4.352-73.472-13.7216-18.5088-7.424-31.7184-15.872-60.0576-37.0944-19.2768-19.4816-31.5392-37.0688-39.7312-57.5232a182.5024 182.5024 0 0 1-13.7216-68.2752c0-22.6048 4.5312-45.312 13.7216-68.2752 10.0864-25.1648 23.552-45.3888 38.2464-56.4224l2.7648-2.3808c19.328-19.328 36.6848-31.7696 56.7296-40.1408 6.0416-1.2544 10.496-2.304 25.9072-6.0928 5.9136-1.4592 9.856-2.3808 13.824-3.2768 15.4112-3.5072 26.5984-5.1968 35.7888-5.1968 11.392 0 21.504 2.0224 45.2608 8.3456 12.0576 3.2256 18.2272 4.7872 25.0368 6.1952 20.0448 8.3712 37.4272 20.8128 56.7808 40.192z m-39.808-88.5248l-4.48-1.3312c-6.5024-1.3056-11.904-2.6624-24.3456-5.9648-28.1088-7.5008-41.0368-10.0864-58.4448-10.0864-13.824 0-28.3136 2.176-47.1552 6.4512-4.3008 0.9728-8.448 1.9712-14.6176 3.4816-16.4864 4.0448-19.712 4.8128-26.2144 6.1184l-4.48 1.3312c-27.4688 10.9824-50.6368 27.1872-74.752 51.0976-22.6304 17.536-40.6016 44.8-53.5808 77.2352a233.6 233.6 0 0 0-17.3824 87.2704c0 29.2352 5.8368 58.368 17.408 87.296 11.1616 27.904 27.7248 51.4048 52.3008 75.9808l2.7392 2.3808c32.8704 24.6528 48.896 35.0208 73.2672 44.7744 29.5424 11.8016 58.752 17.3824 92.4672 17.3824 31.5392 0 65.7152-6.528 89.216-18.2528a498.176 498.176 0 0 0 71.3216-43.904l2.7392-2.3808c24.576-24.576 41.1648-48.0512 52.3264-76.0064a233.6 233.6 0 0 0 17.408-87.296c0-29.2096-5.8624-58.368-17.408-87.2448-12.9792-32.4352-30.9504-59.6992-53.5552-77.2352-24.1408-23.9104-47.3088-40.1152-74.752-51.0976z"  horiz-adv-x="1024" />

    
    <glyph glyph-name="pointx" unicode="&#58906;" d="M504.7296 861.866667c220.910933 0 402.295467-181.384533 392.3968-405.6064 0-49.493333-13.175467-102.229333-42.871467-161.5872-26.385067-59.392-69.256533-125.303467-121.992533-187.972267-36.283733-42.871467-72.567467-85.742933-112.128-125.303467l-36.283733-36.283733-13.175467-13.175467c-36.283733-39.594667-102.229333-39.594667-141.824 0 0 3.2768-6.587733 6.587733-13.175467 13.175467l-36.283733 36.283733c-36.2496 39.594667-75.844267 82.432-112.093867 125.303467-49.493333 65.9456-92.3648 128.6144-122.026666 187.972267C118.8864 354.030933 102.4 406.801067 102.4 456.260267 102.4 680.516267 283.784533 861.866667 504.7296 861.866667z m0-220.945067c-98.952533 0-174.762667-79.1552-174.762667-178.0736 0-98.9184 79.121067-178.0736 174.762667-178.0736 95.607467 0 174.762667 79.1552 174.762667 178.0736 0 98.9184-75.844267 178.0736-174.762667 178.0736z"  horiz-adv-x="1024" />

    
    <glyph glyph-name="searchGx" unicode="&#58907;" d="M636.0832 242.6368c101.376 101.376 101.376 265.728 0 367.104-101.376 101.376-265.728 101.376-367.104 0-101.3504-101.376-101.3504-265.728 0-367.104 101.376-101.376 265.728-101.376 367.104 0z m36.1984-36.1984c-121.344-121.344-318.1312-121.344-439.4752 0-121.3696 121.344-121.3696 318.1312 0 439.5008 121.344 121.344 318.1312 121.344 439.4752 0 121.3696-121.344 121.3696-318.1312 0-439.5008z m-22.7072 7.5776a21.4016 21.4016 0 0 0 0 30.3104 21.4016 21.4016 0 0 0 30.3104 0l212.1472-212.1472a21.4016 21.4016 0 0 0 0-30.336 21.4016 21.4016 0 0 0-30.3104 0l-212.1472 212.1728z"  horiz-adv-x="1024" />

    
    <glyph glyph-name="searchx" unicode="&#58908;" d="M667.136 228.864c128.3584 128.3328 128.3584 336.4096 0 464.7424-128.3328 128.3584-336.4096 128.3584-464.7424 0-128.3584-128.3328-128.3584-336.4096 0-464.7424 128.3328-128.3584 336.4096-128.3584 464.7424 0z m36.1984-36.1984c-148.3264-148.352-388.8128-148.352-537.1648 0-148.3264 148.3264-148.3264 388.8128 0 537.1648 148.352 148.3264 388.864 148.3264 537.1648 0 148.352-148.352 148.352-388.864 0-537.1648z m8.8576 10.5216l-0.8704-0.8704a26.5984 26.5984 0 0 1 0.8704 0.8704z m223.104-224.8192l0.8704 0.8704a26.624 26.624 0 0 1-0.8704-0.8704z m-260.1728 224a25.7024 25.7024 0 0 0 0 36.1472l0.8704 0.8704a25.4208 25.4208 0 0 0 36.1728 0l260.1984-260.1728c9.984-9.984 9.856-26.3168 0-36.1728l-0.8704-0.8704a25.4208 25.4208 0 0 0-36.1728 0L675.1232 202.3424z"  horiz-adv-x="1024" />

    
    <glyph glyph-name="shoucangx" unicode="&#58909;" d="M512-25.6l-60.928 62.336c-226.304 204.8-374.272 342.8096-374.272 512C76.8 686.7456 181.248 793.6 316.16 793.6c73.984 0 147.968-35.6096 195.84-93.4912C559.872 757.9648 633.856 793.6 707.84 793.6 842.752 793.6 947.2 686.7456 947.2 548.736c0-169.1904-147.968-307.2-374.272-512L512-25.6z"  horiz-adv-x="1024" />

    
    <glyph glyph-name="ruanx" unicode="&#58910;" d="M806.1952 421.3504a68.9408 68.9408 0 0 0-40.7296-68.1728V234.24c0-8.832-7.1168-16-15.8976-16h-32.896l17.8816-17.3568c6.3104-6.1312 6.5024-16.256 0.3968-22.6304a15.7952 15.7952 0 0 0-22.4768-0.4096l-41.6 40.3968H353.1264l-41.6128-40.3968a15.7952 15.7952 0 0 0-22.4896 0.4096 16.0768 16.0768 0 0 0 0.4096 22.6304l17.8816 17.3568h-32.896c-8.7808 0-15.9104 7.168-15.9104 16v118.9376a68.9408 68.9408 0 0 0-40.7168 68.1728 68.2624 68.2624 0 0 0 52.7232 61.3376c12.6848 55.0016 61.8112 95.104 119.0016 95.104 1.216 0 2.432-0.0256 3.6736-0.064A143.5392 143.5392 0 0 0 512 640c47.936 0 91.648-23.104 118.8096-62.272 1.2288 0.0384 2.4576 0.0512 3.6608 0.0512 57.1904 0 106.3168-40.0896 119.0144-95.104a68.2624 68.2624 0 0 0 52.7104-61.312z m-416.6656 124.416c-39.9616 0-74.6112-26.432-86.2464-63.6416 10.496-2.9056 20.1728-8.5248 28.16-16.5248a66.0736 66.0736 0 0 0 19.4304-46.8992l0.0896-27.2896a75.456 75.456 0 0 0 44.6208 14.592h56.96A75.904 75.904 0 0 0 512 377.1904a75.904 75.904 0 0 0 59.456 28.8h56.96c17.0496 0 32.8192-5.6832 45.5296-15.2448l0.0896 27.9552a66.0736 66.0736 0 0 0 19.4304 46.8864 63.8208 63.8208 0 0 0 27.328 16.256c-11.5584 37.3504-46.272 63.9232-86.3232 63.9232-3.2512 0-6.656-0.2048-10.112-0.5888a15.8976 15.8976 0 0 0-15.3856 7.6416c-20.7104 34.5344-56.96 55.168-96.9728 55.168-40.0128 0-76.2624-20.6336-96.9728-55.168-3.2-5.3504-9.216-8.3328-15.36-7.6416a91.4048 91.4048 0 0 1-10.1376 0.5888z m138.5856-206.72c0.4096-3.2 0.64-6.464 0.64-9.7664v-3.584h144.064v3.584c0 24.6528-19.9296 44.6976-44.416 44.6976h-56.96c-21.1456 0-38.8864-14.976-43.328-34.944z m-32.2304 0c-4.4416 19.968-22.1824 34.944-43.3408 34.944h-56.96c-24.4864 0-44.4032-20.0576-44.4032-44.7104v-3.5968h144.064v3.5968c0 3.3152 0.2304 6.5536 0.64 9.7536z m-218.0608 41.3312c7.296-1.6 12.5056-8.1152 12.5056-15.6416v-40.1152h28.1472l-0.32 93.9904a34.176 34.176 0 0 1-10.0352 24.2816 31.744 31.744 0 0 1-22.336 9.472c-0.2816 0-0.576 0-0.8576-0.0256H283.8912c-17.8944-0.8064-33.0112-15.488-34.3808-33.4592-1.3952-18.0992 10.7776-34.6496 28.3136-38.5024z m12.5056-130.1248h443.3408v42.368H290.3296v-42.368z m455.8464 130.1248c17.536 3.84 29.696 20.4032 28.3136 38.5152-1.3824 17.9456-16.4864 32.64-34.4064 33.4464l-1.024 0.0256a31.744 31.744 0 0 1-22.272-9.472 34.176 34.176 0 0 1-10.0352-24.256l-0.3072-94.016h27.2256v40.1152c0 7.5264 5.2096 14.0416 12.5056 15.6416z"  horiz-adv-x="1024" />

    
    <glyph glyph-name="weix" unicode="&#58911;" d="M760.6912 405.2864H263.3088A45.76 45.76 0 0 1 217.6 359.5776c0-20.0576 12.992-37.12 30.9888-43.264v-32.6656c0-49.6512 23.36-93.952 59.6608-122.4832l-19.5456-19.5584a15.488 15.488 0 0 1 21.9136-21.9136l24.4864 24.4864a154.752 154.752 0 0 1 69.2096-16.256h215.3728a154.752 154.752 0 0 1 69.2096 16.256l24.4864-24.4864a15.4496 15.4496 0 0 1 21.9136 0 15.488 15.488 0 0 1 0 21.9136l-19.5456 19.5584a155.5328 155.5328 0 0 1 59.648 122.496v32.6528A45.7856 45.7856 0 0 1 806.4 359.5776a45.76 45.76 0 0 1-45.7088 45.7088z m-246.6304-75.9168v44.928h150.8224v-99.8144a25.728 25.728 0 0 0-25.7024-25.6896H539.776a25.728 25.728 0 0 0-25.7024 25.6896v54.8864z m-250.752 15.488c-8.1152 0-14.72 6.6048-14.72 14.72 0 8.1152 6.6048 14.72 14.72 14.72h219.776v-29.44H263.296z m356.3776-185.9328H404.3136c-68.7744 0-124.736 55.9488-124.736 124.7232v30.2208H483.072v-39.3856a56.7552 56.7552 0 0 1 56.6912-56.6784h99.4176a56.7552 56.7552 0 0 1 56.6912 56.6784v39.3856h48.5504v-30.208c0-68.7872-55.9616-124.736-124.736-124.736zM760.704 344.8576H695.872v29.44h64.8192c8.1152 0 14.72-6.6048 14.72-14.72 0-8.1152-6.6048-14.72-14.72-14.72zM484.4288 597.5552a72.5248 72.5248 0 0 0 58.1504-70.9888v-17.4592a15.488 15.488 0 0 0-15.5008-15.488h-113.8304a15.488 15.488 0 0 0-15.488 15.488v17.4592a72.5248 72.5248 0 0 0 55.1168 70.3104 51.2128 51.2128 0 0 1-49.344 37.7344h-6.1952a51.2 51.2 0 0 1-51.136-51.136v-93.4784a15.488 15.488 0 0 0-30.976 0v93.4784A82.2144 82.2144 0 0 0 397.3248 665.6h6.1952c40.4864 0 74.2016-29.44 80.896-68.0448z m27.1488-72.96v1.9712a41.472 41.472 0 0 1-41.408 41.4208 41.472 41.472 0 0 1-41.4208-41.4208v-1.9712h82.8288z"  horiz-adv-x="1024" />

    
    <glyph glyph-name="weishoucangBx" unicode="&#58912;" d="M536.32 72.525l2.253 2.176c281.882 255.078 357.427 349.107 357.427 474.035 0 110.003-81.792 193.664-188.16 193.664-58.368 0-118.016-28.544-156.39-74.931l-39.45-47.693-39.45 47.693c-38.374 46.387-98.022 74.931-156.39 74.931-106.368 0-188.16-83.661-188.16-193.664 0-124.928 75.52-218.931 357.427-474.035l2.253-2.176 24.32-24.883 24.32 24.883zM451.072 36.736c-226.304 204.8-374.272 342.81-374.272 512-0 138.010 104.448 244.864 239.36 244.864 57.088 0 114.176-21.197 159.232-57.472l-2.842-3.405h6.989c11.776-9.856 22.656-20.762 32.461-32.614 9.805 11.853 20.685 22.758 32.461 32.64h6.989c-25.037 30.078-55.297 54.834-89.536 73.116 131.75-33.461 188.838-12.264 245.926-12.264 134.912 0 239.36-106.854 239.36-244.864 0-169.19-147.968-307.2-374.272-512l-60.928-62.336-60.928 62.336z"  horiz-adv-x="1024" />

    
    <glyph glyph-name="close" unicode="&#58913;" d="M532.857 378.26l271.522 271.522-28.564 28.564-271.549-271.522-271.522 271.549-28.564-28.564 271.522-271.549-271.549-271.549 28.564-28.591 271.549 271.522 271.549-271.495 28.591 28.564-271.522 271.549z"  horiz-adv-x="1024" />

    
    <glyph glyph-name="zanx" unicode="&#58914;" d="M909.172364 476.578909H661.294545C757.341091 831.301818 595.083636 849.454545 595.083636 849.454545c-68.794182 0-54.504727-54.388364-59.694545-63.441454 0-173.498182-184.296727-309.434182-184.296727-309.434182v-491.985454c0-48.570182 66.187636-66.048 92.16-66.048H815.709091c35.048727 0 63.581091 91.927273 63.581091 91.927272 92.16 313.320727 92.16 406.551273 92.16 406.551273 0 64.721455-62.301091 59.554909-62.301091 59.554909z m-659.781819-0.162909H100.957091C70.306909 476.392727 69.818182 446.301091 69.818182 446.301091l30.673454-496.174546C100.491636-81.454545 132.119273-81.454545 132.119273-81.454545h128.465454c26.763636 0 26.530909 20.875636 26.530909 20.875636V438.784c0 38.120727-37.701818 37.632-37.701818 37.632z"  horiz-adv-x="1024" />

    
    <glyph glyph-name="yanjingx" unicode="&#58915;" d="M512 656.008533c-174.4896 0-310.545067-104.106667-477.3888-272.827733 143.701333-144.1792 264.226133-272.861867 477.3888-272.861867 212.923733 0 369.493333 162.816 477.3888 269.755734-110.250667 125.303467-266.8544 275.933867-477.3888 275.933866z m0-467.387733c-105.2672 0-190.976 87.381333-190.976 194.56 0 107.4176 85.7088 194.525867 190.976 194.525867 105.2672 0 190.976-87.381333 190.976-194.56 0-107.383467-85.7088-194.525867-190.976-194.525867zM512 451.447467c0 16.930133 6.212267 32.221867 16.247467 44.1344a91.2384 91.2384 0 0 1-16.247467 1.194666c-61.3376 0-111.479467-50.858667-111.479467-113.595733 0-62.805333 50.141867-113.664 111.479467-113.664s111.479467 50.858667 111.479467 113.664c0 4.983467-0.477867 9.762133-0.955734 14.779733-11.707733-9.079467-26.282667-14.779733-42.257066-14.779733a68.266667 68.266667 0 0 0-68.266667 68.266667z"  horiz-adv-x="1024" />

    
    <glyph glyph-name="zhuangxiux" unicode="&#58916;" d="M595.8912 403.136h-70.5408a56.3584 56.3584 0 0 1-56.3456-56.2304v-74.6624H438.784a16.768 16.768 0 0 1-16.7936-16.768v-102.208c0-35.0976 28.6208-63.6672 63.808-63.6672 35.1744 0 63.7952 28.5696 63.7952 63.6672V255.488a16.768 16.768 0 0 1-16.7936 16.768h-30.208v74.6624a22.784 22.784 0 0 0 22.7584 22.72h70.5536a16.768 16.768 0 0 1 16.7808 16.768 16.768 16.768 0 0 1-16.7936 16.7424z m-79.872-164.4032v-85.4656a30.2208 30.2208 0 0 0-60.4416 0v85.4656h60.4288zM733.312 579.136a56.3584 56.3584 0 0 0 56.3456-56.2432v-97.024a56.3584 56.3584 0 0 0-56.3456-56.2432h-95.104a16.768 16.768 0 0 0-16.7808 16.768 16.768 16.768 0 0 0 16.7936 16.7424h95.0912a22.784 22.784 0 0 1 22.7712 22.7328v97.024a22.784 22.784 0 0 1-22.784 22.72h-4.928v-30.8224c0-37.7344-30.7584-68.4416-68.5696-68.4416h-348.032c-37.824 0-68.5824 30.7072-68.5824 68.4416v95.168C243.2 647.6928 273.9584 678.4 311.7696 678.4h348.032c37.824 0 68.5824-30.7072 68.5824-68.4416v-30.8224h4.9408z m-73.5104-99.2768a35.008 35.008 0 0 1 34.9952 34.944v95.1552a35.008 35.008 0 0 1-34.9952 34.9312h-348.032a35.008 35.008 0 0 1-35.008-34.9312v-30.8224h230.4128a16.768 16.768 0 0 0 16.7936-16.768 16.768 16.768 0 0 0-16.7936-16.7552h-230.4v-30.8224a35.008 35.008 0 0 1 34.9824-34.9312h348.032z"  horiz-adv-x="1024" />

    
    <glyph glyph-name="weishoucangx" unicode="&#58917;" d="M536.32 72.5248l2.2528 2.176C820.4544 329.7792 896 423.808 896 548.736 896 658.7392 814.208 742.4 707.84 742.4c-58.368 0-118.016-28.544-156.3904-74.9312L512 619.776l-39.4496 47.6928C434.176 713.856 374.528 742.4 316.16 742.4 209.792 742.4 128 658.7392 128 548.736c0-124.928 75.52-218.9312 357.4272-474.0352l2.2528-2.176 24.32-24.8832 24.32 24.8832z m-85.248-35.7888c-226.304 204.8-374.272 342.8096-374.272 512C76.8 686.7456 181.248 793.6 316.16 793.6c57.088 0 114.176-21.1968 159.232-57.472l4.1472-3.4048c11.776-9.856 22.656-20.7616 32.4608-32.6144 9.8048 11.8528 20.6848 22.7584 32.4608 32.64l4.1472 3.3792C593.664 772.4032 650.752 793.6 707.84 793.6 842.752 793.6 947.2 686.7456 947.2 548.736c0-169.1904-147.968-307.2-374.272-512L512-25.6l-60.928 62.336z"  horiz-adv-x="1024" />

    
    <glyph glyph-name="zhengx" unicode="&#58918;" d="M34.133333 759.466667v-750.933334c0-58.026667 44.373333-102.4 102.4-102.4h750.933334c58.026667 0 102.4 44.373333 102.4 102.4V759.466667c0 58.026667-44.373333 102.4-102.4 102.4H136.533333C78.506667 861.866667 34.133333 817.493333 34.133333 759.466667zM0 759.466667c0 75.093333 61.44 136.533333 136.533333 136.533333h750.933334c75.093333 0 136.533333-61.44 136.533333-136.533333v-750.933334c0-75.093333-61.44-136.533333-136.533333-136.533333H136.533333c-75.093333 0-136.533333 61.44-136.533333 136.533333V759.466667zM624.64 622.933333h-191.146667V670.72h382.293334V622.933333h-139.946667v-191.146666h133.12V384h-133.12v-235.52h153.6v-47.786667H409.6v47.786667h68.266667V510.293333h47.786666v-361.813333h95.573334V622.933333z m-341.333333 71.68l-34.133334-30.72c47.786667-37.546667 85.333333-71.68 112.64-105.813333l34.133334 34.133333c-30.72 34.133333-68.266667 68.266667-112.64 102.4z m-81.92-201.386666h146.773333v-293.546667c20.48 20.48 44.373333 40.96 71.68 64.853333l13.653333-51.2c-40.96-37.546667-81.92-71.68-126.293333-102.4l-20.48 44.373334c10.24 6.826667 13.653333 17.066667 13.653333 27.306666v266.24H201.386667v44.373334z"  horiz-adv-x="1024" />

    
    <glyph glyph-name="homex" unicode="&#58919;" d="M476.16 742.4c20.48 20.48 51.2 20.48 71.68 0l322.56-337.92c48.64-51.2 30.72-92.16-40.96-92.16h-637.44c-71.68 0-89.6 40.96-40.96 92.16l325.12 337.92zM478.72 742.4c20.48 20.48 51.2 20.48 71.68 0l322.56-337.92c48.64-51.2 30.72-92.16-40.96-92.16h-640c-69.12 0-87.040 40.96-38.4 92.16l325.12 337.92zM593.92 5.12h174.080c28.16 0 51.2 23.040 51.2 51.2v266.24c0 28.16-23.040 51.2-51.2 51.2h-512c-28.16 0-51.2-23.040-51.2-51.2v-266.24c0-28.16 23.040-51.2 51.2-51.2h174.080v174.080c0 28.16 23.040 51.2 51.2 51.2h61.44c28.16 0 51.2-23.040 51.2-51.2v-174.080zM864.333 763.622c14.49 0 25.344-10.88 25.344-25.344l-1.792-121.293c0-28.954-18.125-36.198-36.224-14.49l-119.475 119.475c-19.917 19.917-12.672 34.406 14.49 36.198l117.658 5.453z"  horiz-adv-x="1024" />

    
    <glyph glyph-name="quanx" unicode="&#58920;" d="M34.133333 759.466667v-750.933334c0-58.026667 44.373333-102.4 102.4-102.4h750.933334c58.026667 0 102.4 44.373333 102.4 102.4V759.466667c0 58.026667-44.373333 102.4-102.4 102.4H136.533333C78.506667 861.866667 34.133333 817.493333 34.133333 759.466667zM0 759.466667c0 75.093333 61.44 136.533333 136.533333 136.533333h750.933334c75.093333 0 136.533333-61.44 136.533333-136.533333v-750.933334c0-75.093333-61.44-136.533333-136.533333-136.533333H136.533333c-75.093333 0-136.533333 61.44-136.533333 136.533333V759.466667zM433.493333 291.84H337.92v37.546667c-34.133333-27.306667-71.68-51.2-112.64-68.266667l-27.306667 40.96c71.68 30.72 133.12 75.093333 180.906667 126.293333H218.453333v44.373334h194.56c17.066667 23.893333 30.72 47.786667 40.96 75.093333H256V592.213333h215.04c13.653333 37.546667 20.48 75.093333 27.306667 116.053334l47.786666-3.413334c-6.826667-40.96-17.066667-75.093333-27.306666-109.226666h139.946666l-34.133333 20.48c20.48 27.306667 40.96 58.026667 54.613333 95.573333l40.96-20.48c-17.066667-37.546667-34.133333-71.68-58.026666-98.986667h105.813333v-44.373333h-262.826667c-10.24-27.306667-23.893333-51.2-37.546666-75.093333h337.92v-44.373334h-150.186667c34.133333-47.786667 92.16-88.746667 170.666667-126.293333l-30.72-40.96c-40.96 23.893333-71.68 44.373333-102.4 68.266667-3.413333-61.44-6.826667-109.226667-10.24-146.773334-6.826667-37.546667-13.653333-64.853333-27.306667-78.506666-13.653333-13.653333-34.133333-23.893333-61.44-23.893334h-102.4l-13.653333 47.786667c30.72 0 61.44-3.413333 92.16-3.413333 27.306667 0 47.786667 10.24 58.026666 30.72 10.24 20.48 17.066667 68.266667 17.066667 136.533333H477.866667c-13.653333-51.2-34.133333-92.16-58.026667-122.88-30.72-34.133333-71.68-64.853333-133.12-92.16l-30.72 37.546667c54.613333 23.893333 92.16 47.786667 119.466667 78.506666 27.306667 23.893333 44.373333 58.026667 58.026666 98.986667z m3.413334 136.533333c-27.306667-34.133333-54.613333-64.853333-88.746667-92.16h341.333333c-34.133333 30.72-61.44 61.44-81.92 92.16h-170.666666z m-81.92 276.48c20.48-27.306667 37.546667-58.026667 51.2-92.16l-40.96-17.066666c-17.066667 37.546667-34.133333 68.266667-51.2 95.573333l40.96 13.653333z"  horiz-adv-x="1024" />

    
    <glyph glyph-name="fanx" unicode="&#58921;" d="M34.133333 759.466667v-750.933334c0-58.026667 44.373333-102.4 102.4-102.4h750.933334c58.026667 0 102.4 44.373333 102.4 102.4V759.466667c0 58.026667-44.373333 102.4-102.4 102.4H136.533333C78.506667 861.866667 34.133333 817.493333 34.133333 759.466667zM0 759.466667c0 75.093333 61.44 136.533333 136.533333 136.533333h750.933334c75.093333 0 136.533333-61.44 136.533333-136.533333v-750.933334c0-75.093333-61.44-136.533333-136.533333-136.533333H136.533333c-75.093333 0-136.533333 61.44-136.533333 136.533333V759.466667zM259.413333 694.613333l-34.133333-30.72C273.066667 622.933333 310.613333 585.386667 337.92 551.253333l34.133333 34.133334c-30.72 34.133333-68.266667 71.68-112.64 109.226666z m392.533334-604.16h-119.466667c-44.373333 0-78.506667 3.413333-105.813333 13.653334-27.306667 6.826667-51.2 23.893333-71.68 51.2-10.24 10.24-17.066667 17.066667-27.306667 17.066666-17.066667 0-44.373333-30.72-81.92-95.573333l-37.546667 34.133333c37.546667 58.026667 68.266667 92.16 98.986667 105.813334v208.213333H211.626667v44.373333h143.36V213.333333c6.826667-3.413333 10.24-10.24 17.066666-17.066666 17.066667-20.48 34.133333-34.133333 51.2-44.373334 20.48-10.24 51.2-13.653333 92.16-17.066666h232.106667c34.133333 0 58.026667 3.413333 78.506667 3.413333l-10.24-47.786667h-163.84z m116.053333 604.16l23.893333-40.96c-88.746667-23.893333-187.733333-37.546667-293.546666-37.546666v-78.506667H785.066667v-34.133333c-20.48-64.853333-47.786667-119.466667-85.333334-170.666667 40.96-37.546667 78.506667-78.506667 112.64-116.053333l-34.133333-37.546667c-30.72 40.96-68.266667 81.92-109.226667 119.466667-44.373333-47.786667-95.573333-92.16-157.013333-126.293334l-30.72 37.546667c61.44 34.133333 109.226667 71.68 150.186667 119.466667-37.546667 34.133333-78.506667 64.853333-122.88 98.986666l27.306666 34.133334c44.373333-30.72 85.333333-61.44 122.88-95.573334 30.72 40.96 51.2 85.333333 68.266667 133.12h-238.933333c-3.413333-133.12-27.306667-235.52-68.266667-303.786666l-37.546667 17.066666c44.373333 68.266667 68.266667 167.253333 68.266667 293.546667V657.066667c126.293333 3.413333 232.106667 17.066667 317.44 37.546666z"  horiz-adv-x="1024" />

    
    <glyph glyph-name="quan" unicode="&#58922;" d="M4416-113.92v-7.68c0-3.84-2.56-6.4-6.4-6.4h-4403.2c-3.84 0-6.4 2.56-6.4 6.4v7.68c18.56 3.2 32 12.8 32 24.96 0 11.52-13.44 21.76-32 24.96v21.76c18.56 3.2 32 12.8 32 24.96 0 11.52-13.44 21.76-32 24.96v21.76c18.56 3.2 32 12.8 32 24.96s-13.44 21.76-32 24.96v21.76c18.56 3.2 32 12.8 32 24.96 0 11.52-13.44 21.76-32 24.96v21.76c18.56 3.2 32 12.8 32 24.96s-13.44 21.76-32 24.96v1.28c88.32 0 160 72.32 160 161.92s-71.68 160-160 160v1.28c18.56 3.2 32 12.8 32 24.96s-13.44 21.76-32 24.96v21.76c18.56 3.2 32 12.8 32 24.96s-13.44 21.76-32 24.96v21.76c18.56 3.2 32 12.8 32 24.96 0 11.52-13.44 21.76-32 24.96v21.76c18.56 3.2 32 12.8 32 24.96 0 11.52-13.44 21.76-32 24.96v19.84c18.56 3.2 32 12.8 32 24.96s-13.44 21.76-32 24.96v7.68c0 3.84 2.56 6.4 6.4 6.4h4403.2c3.84 0 6.4-2.56 6.4-6.4v-7.68c-18.56-3.2-32-12.8-32-24.96s13.44-21.76 32-24.96v-21.76c-18.56-3.2-32-12.8-32-24.96 0-11.52 13.44-21.76 32-24.96v-21.76c-18.56-3.2-32-12.8-32-24.96 0-11.52 13.44-21.76 32-24.96v-21.76c-18.56-3.2-32-12.8-32-24.96s13.44-21.76 32-24.96v-21.76c-18.56-3.2-32-12.8-32-24.96s13.44-21.76 32-24.96v-1.28c-88.32 0-160-72.32-160-161.92s71.68-161.92 160-161.92v-1.28c-18.56-3.2-32-12.8-32-24.96s13.44-21.76 32-24.96v-21.76c-18.56-3.2-32-12.8-32-24.96 0-11.52 13.44-21.76 32-24.96v-21.76c-18.56-3.2-32-12.8-32-24.96s13.44-21.76 32-24.96v-21.76c-18.56-3.2-32-12.8-32-24.96 0-11.52 13.44-21.76 32-24.96v-21.76c-18.56-3.2-32-12.8-32-24.96 0-8.32 13.44-17.92 32-21.12zM4137.6-32h-3859.2c-5.12 0-9.6 4.48-9.6 9.6v806.4c0 5.12 4.48 9.6 9.6 9.6h3859.2c5.12 0 9.6-4.48 9.6-9.6v-806.4c0-5.12-4.48-9.6-9.6-9.6zM278.4 787.2c-1.92 0-3.2-1.28-3.2-3.2v-806.4c0-1.92 1.28-3.2 3.2-3.2h3859.2c1.92 0 3.2 1.28 3.2 3.2v806.4c0 1.92-1.28 3.2-3.2 3.2h-3859.2z"  horiz-adv-x="4416" />

    
    <glyph glyph-name="tixingx" unicode="&#58923;" d="M512 896c-281.6 0-512-230.4-512-512 0-284.444 230.4-512 512-512s512 230.4 512 512-230.4 512-512 512zM608.711 605.867l-19.911-281.6c0-42.667-34.133-79.644-79.644-79.644-42.667 0-79.644 34.133-79.644 79.644l-19.911 281.6v11.378c0 54.044 42.667 99.556 99.556 99.556 54.044 0 99.556-42.667 99.556-99.556 2.844-2.844 0-5.689 0-11.378zM512 28.444c-42.667 0-79.644 34.133-79.644 79.644 0 42.667 34.133 79.644 79.644 79.644 42.667 0 79.644-34.133 79.644-79.644 0-42.667-36.978-79.644-79.644-79.644z"  horiz-adv-x="1024" />

    
    <glyph glyph-name="close-a" unicode="&#58925;" d="M589.568 384l129.17 129.17c9.926 9.926 16.065 23.638 16.065 38.784 0 30.292-24.557 54.849-54.849 54.849-15.146 0-28.858-6.139-38.784-16.065l-129.17-129.17-129.17 129.17c-9.926 9.926-23.638 16.065-38.784 16.065-30.292 0-54.849-24.557-54.849-54.849 0-15.146 6.139-28.858 16.065-38.784l129.17-129.17-129.17-129.17c-9.926-9.926-16.065-23.638-16.065-38.784 0-30.292 24.557-54.849 54.849-54.849 15.146 0 28.858 6.139 38.784 16.065l129.17 129.17 129.17-129.17c9.926-9.926 23.638-16.065 38.784-16.065 30.292 0 54.849 24.557 54.849 54.849 0 15.146-6.139 28.858-16.065 38.784l-129.17 129.17zM512-128c-282.77 0-512 229.23-512 512s229.23 512 512 512 512-229.23 512-512-229.23-512-512-512z"  horiz-adv-x="1024" />

    
    <glyph glyph-name="zhanghaomimax" unicode="&#58924;" d="M512-115.2c275.2 0 499.2 224 499.2 499.2S787.2 883.2 512 883.2 12.8 659.2 12.8 384s224-499.2 499.2-499.2z m0-12.8C229.12-128 0 101.12 0 384S229.12 896 512 896s512-229.12 512-512-229.12-512-512-512zM583.68 412.16v65.28c0 19.2-7.68 37.12-20.48 51.2-14.08 14.08-32 21.76-51.2 21.76s-37.12-7.68-49.92-21.76c-14.08-12.8-21.76-30.72-21.76-51.2v-66.56H384V217.6h256V412.16h-56.32z m74.24 25.6c3.84 0 7.68-3.84 7.68-7.68v-229.12c0-5.12-3.84-7.68-7.68-7.68H366.08c-3.84-1.28-7.68 2.56-7.68 6.4V428.8c0 5.12 3.84 7.68 7.68 7.68h48.64v40.96c0 25.6 10.24 51.2 28.16 69.12S486.4 576 512 576s49.92-10.24 69.12-28.16 28.16-43.52 28.16-69.12v-40.96h48.64zM537.6 335.36c0-6.4-3.84-12.8-8.96-16.64v-21.76c0-8.96-7.68-15.36-16.64-15.36s-16.64 6.4-16.64 15.36v21.76c-5.12 3.84-8.96 10.24-8.96 16.64 0 12.8 11.52 23.04 25.6 23.04s25.6-10.24 25.6-23.04z"  horiz-adv-x="1024" />

    
    <glyph glyph-name="yanfangx" unicode="&#58926;" d="M75.851852 896h872.296296c41.718519 0 75.851852-34.133333 75.851852-75.851852v-872.296296c0-41.718519-34.133333-75.851852-75.851852-75.851852H75.851852c-41.718519 0-75.851852 34.133333-75.851852 75.851852V820.148148c0 41.718519 34.133333 75.851852 75.851852 75.851852zM246.518519 194.37037c0 32.237037 26.548148 56.888889 56.888888 56.888889 32.237037 0 56.888889-24.651852 56.888889-56.888889s-24.651852-56.888889-56.888889-56.888889c-11.377778 0-18.962963-7.585185-18.962963-18.962962s7.585185-18.962963 18.962963-18.962963c53.096296 0 94.814815 41.718519 94.814815 94.814814s-41.718519 94.814815-94.814815 94.814815-94.814815-41.718519-94.814814-94.814815c0-11.377778 7.585185-18.962963 18.962963-18.962963s18.962963 7.585185 18.962963 18.962963M792.651852 190.577778c-9.481481 0-17.066667 5.688889-18.962963 15.17037-5.688889 39.822222-53.096296 45.511111-54.992593 45.511111-9.481481 0-17.066667 9.481481-17.066666 18.962963V592.592593c0 11.377778 7.585185 18.962963 18.962963 18.962963s18.962963-9.481481 18.962963-18.962963l-1.896297-303.407408c28.444444-7.585185 64.474074-28.444444 72.05926-73.955555 1.896296-9.481481-5.688889-20.859259-15.170371-20.85926 0-3.792593-1.896296-3.792593-1.896296-3.792592zM246.518519 194.37037c0 32.237037 26.548148 56.888889 56.888888 56.888889 32.237037 0 56.888889-24.651852 56.888889-56.888889 0-5.688889 1.896296-9.481481 5.688889-13.274074 3.792593-3.792593 7.585185-5.688889 13.274074-5.688889s9.481481 1.896296 13.274074 5.688889c3.792593 3.792593 5.688889 7.585185 5.688889 13.274074V573.62963c0 11.377778-7.585185 18.962963-18.962963 18.962963s-18.962963-7.585185-18.962963-18.962963v-379.25926c0-5.688889 1.896296-9.481481 5.688889-13.274074 3.792593-3.792593 7.585185-5.688889 13.274074-5.688889s9.481481 1.896296 13.274074 5.688889c3.792593 3.792593 5.688889 7.585185 5.688889 13.274074 0 53.096296-41.718519 94.814815-94.814815 94.814815s-94.814815-41.718519-94.814814-94.814815c0-11.377778 7.585185-18.962963 18.962963-18.962963s18.962963 7.585185 18.962963 18.962963M777.481481 194.37037c0-30.340741-26.548148-56.888889-56.888888-56.888889H303.407407c-30.340741 0-56.888889 26.548148-56.888888 56.888889V573.62963c0 30.340741 26.548148 56.888889 56.888888 56.888889s56.888889-26.548148 56.888889-56.888889c0-5.688889 1.896296-9.481481 5.688889-13.274074 3.792593-3.792593 7.585185-5.688889 13.274074-5.688889h341.333334c5.688889 0 9.481481 1.896296 13.274074 5.688889 3.792593 3.792593 5.688889 7.585185 5.688889 13.274074v53.096296c22.755556-7.585185 37.925926-28.444444 37.925925-53.096296v-379.25926z m-56.888888 474.074074c-5.688889 0-9.481481-1.896296-13.274074-5.688888s-5.688889-7.585185-5.688889-13.274075v-56.888888H396.325926c-9.481481 43.614815-47.407407 75.851852-92.918519 75.851851-53.096296 0-94.814815-41.718519-94.814814-94.814814v-379.25926c0-53.096296 41.718519-94.814815 94.814814-94.814814h417.185186c53.096296 0 94.814815 41.718519 94.814814 94.814814V573.62963c0 53.096296-41.718519 94.814815-94.814814 94.814814z"  horiz-adv-x="1024" />

    
    <glyph glyph-name="shejix" unicode="&#58927;" d="M75.851852 896h872.296296c41.718519 0 75.851852-34.133333 75.851852-75.851852v-872.296296c0-41.718519-34.133333-75.851852-75.851852-75.851852H75.851852c-41.718519 0-75.851852 34.133333-75.851852 75.851852V820.148148c0 41.718519 34.133333 75.851852 75.851852 75.851852zM252.207407 272.118519l134.637037-134.637038c7.585185-7.585185 18.962963-7.585185 26.548149 0s7.585185 18.962963 0 26.548149l-134.637037 134.637037c-7.585185 7.585185-18.962963 7.585185-26.548149 0-7.585185-7.585185-7.585185-18.962963 0-26.548148M603.022222 622.933333l134.637037-134.637037c7.585185-7.585185 18.962963-7.585185 26.548148 0s7.585185 18.962963 0 26.548148L629.57037 649.481481c-7.585185 7.585185-18.962963 7.585185-26.548148 0-7.585185-7.585185-7.585185-18.962963 0-26.548148M225.659259 137.481481l26.548148-26.548148c7.585185-7.585185 18.962963-7.585185 26.548149 0s7.585185 18.962963 0 26.548148l-26.548149 26.548149c-7.585185 7.585185-18.962963 7.585185-26.548148 0-7.585185-5.688889-7.585185-18.962963 0-26.548149M529.066667 548.977778l134.637037-134.637037c7.585185-7.585185 18.962963-7.585185 26.548148 0s7.585185 18.962963 0 26.548148l-134.637037 134.637037c-7.585185 7.585185-18.962963 7.585185-26.548148 0-7.585185-7.585185-7.585185-18.962963 0-26.548148M747.140741 526.222222l-9.481482-11.377778L663.703704 440.888889 390.637037 167.822222l-149.807407-43.614815 43.614814 149.807408 273.066667 273.066666 73.955556 73.955556 9.481481 9.481482c11.377778 11.377778 24.651852 17.066667 39.822222 17.066666s28.444444-5.688889 39.822223-17.066666l26.548148-26.548149c11.377778-11.377778 17.066667-24.651852 17.066666-39.822222-1.896296-13.274074-5.688889-26.548148-17.066666-37.925926z m53.096296 39.822222c0 24.651852-9.481481 49.303704-28.444444 66.370371l-26.548149 26.548148c-18.962963 18.962963-43.614815 28.444444-66.37037 28.444444-24.651852 0-49.303704-9.481481-66.37037-28.444444l-9.481482-9.481482-73.955555-73.955555-276.85926-276.859259-5.688888-7.585186-53.096297-187.733333c-1.896296-5.688889 0-13.274074 5.688889-18.962963s11.377778-7.585185 18.962963-5.688889l187.733333 53.096297 7.585186 5.688888 276.859259 276.85926 73.955555 73.955555 9.481482 9.481482c18.962963 20.859259 28.444444 43.614815 26.548148 68.266666z"  horiz-adv-x="1024" />

    
    <glyph glyph-name="liangfangx" unicode="&#58928;" d="M75.851852 896h872.296296c41.718519 0 75.851852-34.133333 75.851852-75.851852v-872.296296c0-41.718519-34.133333-75.851852-75.851852-75.851852H75.851852c-41.718519 0-75.851852 34.133333-75.851852 75.851852V820.148148c0 41.718519 34.133333 75.851852 75.851852 75.851852zM549.925926 365.037037v-132.740741c0-11.377778 7.585185-18.962963 18.962963-18.962963s18.962963 7.585185 18.962963 18.962963v132.740741c0 11.377778-7.585185 18.962963-18.962963 18.962963s-18.962963-7.585185-18.962963-18.962963M625.777778 346.074074v-37.925926c0-11.377778 7.585185-18.962963 18.962963-18.962963s18.962963 7.585185 18.962963 18.962963v37.925926c0 11.377778-7.585185 18.962963-18.962963 18.962963s-18.962963-7.585185-18.962963-18.962963M701.62963 346.074074v-37.925926c0-11.377778 7.585185-18.962963 18.962963-18.962963s18.962963 7.585185 18.962963 18.962963v37.925926c0 11.377778-7.585185 18.962963-18.962963 18.962963s-18.962963-7.585185-18.962963-18.962963M398.222222 308.148148v18.962963c-41.718519 0-75.851852 34.133333-75.851852 75.851852s34.133333 75.851852 75.851852 75.851852 75.851852-34.133333 75.851852-75.851852-34.133333-75.851852-75.851852-75.851852v-37.925926c62.577778 0 113.777778 51.2 113.777778 113.777778s-51.2 113.777778-113.777778 113.777778-113.777778-51.2-113.777778-113.777778 51.2-113.777778 113.777778-113.777778v18.962963M777.481481 251.259259H303.407407c-32.237037 0-56.888889 24.651852-56.888888 56.888889V497.777778c0 32.237037 24.651852 56.888889 56.888888 56.888889h189.62963c32.237037 0 56.888889-24.651852 56.888889-56.888889v-151.703704c0-5.688889 1.896296-9.481481 5.688889-13.274074 3.792593-3.792593 7.585185-5.688889 13.274074-5.688889h208.592592v-75.851852z m37.925926-18.962963v113.777778c0 5.688889-1.896296 9.481481-5.688888 13.274074-3.792593 3.792593-7.585185 5.688889-13.274075 5.688889H587.851852v132.740741c0 53.096296-41.718519 94.814815-94.814815 94.814815H303.407407c-53.096296 0-94.814815-41.718519-94.814814-94.814815v-189.62963c0-53.096296 41.718519-94.814815 94.814814-94.814815h474.074074v-18.962963c0-11.377778 7.585185-18.962963 18.962963-18.962963s18.962963 7.585185 18.962963 18.962963v37.925926z"  horiz-adv-x="1024" />

    
    <glyph glyph-name="zhanghaomimax1" unicode="&#58929;" d="M512-115.2c275.2 0 499.2 224 499.2 499.2S787.2 883.2 512 883.2 12.8 659.2 12.8 384s224-499.2 499.2-499.2z m0-12.8C229.12-128 0 101.12 0 384S229.12 896 512 896s512-229.12 512-512-229.12-512-512-512zM583.68 412.16v65.28c0 19.2-7.68 37.12-20.48 51.2-14.08 14.08-32 21.76-51.2 21.76s-37.12-7.68-49.92-21.76c-14.08-12.8-21.76-30.72-21.76-51.2v-66.56H384V217.6h256V412.16h-56.32z m74.24 25.6c3.84 0 7.68-3.84 7.68-7.68v-229.12c0-5.12-3.84-7.68-7.68-7.68H366.08c-3.84-1.28-7.68 2.56-7.68 6.4V428.8c0 5.12 3.84 7.68 7.68 7.68h48.64v40.96c0 25.6 10.24 51.2 28.16 69.12S486.4 576 512 576s49.92-10.24 69.12-28.16 28.16-43.52 28.16-69.12v-40.96h48.64zM537.6 335.36c0-6.4-3.84-12.8-8.96-16.64v-21.76c0-8.96-7.68-15.36-16.64-15.36s-16.64 6.4-16.64 15.36v21.76c-5.12 3.84-8.96 10.24-8.96 16.64 0 12.8 11.52 23.04 25.6 23.04s25.6-10.24 25.6-23.04z"  horiz-adv-x="1024" />

    
    <glyph glyph-name="deletex" unicode="&#58930;" d="M211.862069 13.241379c0-38.841379 31.77931-70.62069 70.62069-70.620689h494.344827c38.841379 0 70.62069 31.77931 70.62069 70.620689V648.827586H211.862069v-635.586207zM141.241379 719.448276h776.827587v-706.206897c0-77.682759-63.558621-141.241379-141.24138-141.241379H282.482759c-77.682759 0-141.241379 63.558621-141.24138 141.241379V719.448276zM670.896552 719.448276V772.413793c0 28.248276-24.717241 52.965517-52.965518 52.965517h-176.551724c-28.248276 0-52.965517-24.717241-52.965517-52.965517V719.448276h282.482759zM317.793103 648.827586V772.413793C317.793103 839.503448 374.289655 896 441.37931 896h176.551724C685.02069 896 741.517241 839.503448 741.517241 772.413793V648.827586H317.793103zM70.62069 719.448276h918.068965c21.186207 0 35.310345-14.124138 35.310345-35.310345s-14.124138-35.310345-35.310345-35.310345H70.62069c-21.186207 0-35.310345 14.124138-35.310345 35.310345s14.124138 35.310345 35.310345 35.310345zM353.103448 472.275862c-21.186207 0-35.310345-7.062069-35.310345-24.717241v-307.2c0-14.124138 17.655172-24.717241 35.310345-24.717242s35.310345 7.062069 35.310345 24.717242v307.2c-3.531034 14.124138-14.124138 24.717241-35.310345 24.717241zM529.655172 472.275862c-21.186207 0-35.310345-7.062069-35.310344-24.717241v-307.2c0-14.124138 17.655172-24.717241 35.310344-24.717242s35.310345 7.062069 35.310345 24.717242v307.2c-3.531034 14.124138-14.124138 24.717241-35.310345 24.717241zM706.206897 472.275862c-21.186207 0-35.310345-7.062069-35.310345-24.717241v-307.2c0-14.124138 17.655172-24.717241 35.310345-24.717242s35.310345 7.062069 35.310344 24.717242v307.2c-3.531034 14.124138-14.124138 24.717241-35.310344 24.717241z"  horiz-adv-x="1059" />

    
    <glyph glyph-name="shoujiyanzhengx" unicode="&#58931;" d="M512-115.2c275.2 0 499.2 224 499.2 499.2S787.2 883.2 512 883.2 12.8 659.2 12.8 384s224-499.2 499.2-499.2z m0-12.8C229.12-128 0 101.12 0 384S229.12 896 512 896s512-229.12 512-512-229.12-512-512-512zM371.2 153.6h281.6V588.8H371.2v-435.2zM345.6 601.6c0 7.68 6.4 12.8 12.8 12.8h307.2c7.68 0 12.8-6.4 12.8-12.8v-460.8c0-7.68-6.4-12.8-12.8-12.8H358.4c-7.68 0-12.8 6.4-12.8 12.8V601.6zM444.2496 404.9408c5.4272 5.4272 12.672 5.4272 18.0992 0l36.2112-36.1984c5.4272-5.44 5.4272-12.672 0-18.112-5.44-5.4272-12.672-5.4272-18.0992 0l-36.2112 36.2112c-5.4272 5.4272-5.4272 12.672 0 18.0992zM480.4608 368.7424l72.3968 72.3968c5.44 5.44 12.672 5.44 18.112 0 5.4272-5.4272 5.4272-12.672 0-18.0992l-72.4096-72.4096c-5.44-5.4272-12.672-5.4272-18.0992 0-5.44 5.44-5.44 12.672 0 18.112zM396.8 256h256c7.68 0 12.8-5.12 12.8-12.8s-5.12-12.8-12.8-12.8H396.8c-7.68 0-12.8 5.12-12.8 12.8s5.12 12.8 12.8 12.8zM512 192m-25.6 0a25.6 25.6 0 1 1 51.2 0 25.6 25.6 0 1 1-51.2 0Z"  horiz-adv-x="1024" />

    
    <glyph glyph-name="round-checkx" unicode="&#58932;" d="M256 102.4h537.6v537.6h-537.6v-537.6zM204.8 665.6c0 12.8 12.8 25.6 25.6 25.6h588.8c12.8 0 25.6-12.8 25.6-25.6v-588.8c0-12.8-12.8-25.6-25.6-25.6h-588.8c-12.8 0-25.6 12.8-25.6 25.6v588.8zM376.243 389.939c10.88 10.854 25.344 10.854 36.224 0l90.496-90.522c10.854-10.854 10.854-25.344 0-36.198-10.854-10.854-25.344-10.854-36.198 0l-90.522 90.496c-4.626 4.639-7.487 11.042-7.487 18.112 0 7.070 2.861 13.473 7.488 18.113zM466.765 299.418l181.018 181.018c10.854 10.854 25.344 10.854 36.198 0 10.854-10.854 10.854-25.344 0-36.198l-180.992-181.018c-10.88-10.854-25.344-10.854-36.224 0-4.619 4.638-7.474 11.035-7.474 18.099 0 7.064 2.855 13.461 7.475 18.1z"  horiz-adv-x="1024" />

    
    <glyph glyph-name="icon_star_onx" unicode="&#58933;" d="M512 76.8l-302.08-158.72 56.32 337.92L25.6 491.52 363.52 537.6 512 844.8zM512 844.8l148.48-307.2 337.92-46.08-240.64-235.52 56.32-337.92L512 76.8z"  horiz-adv-x="1024" />

    
    <glyph glyph-name="jiangpai" unicode="&#58934;" d="M480.493 631.359c-191.932 0-347.527-155.592-347.527-347.527 0-191.933 155.595-347.527 347.527-347.527S828.02 91.899 828.02 283.832c0 191.935-155.594 347.527-347.527 347.527z m178.694-316.532l-68.521-66.792 16.175-94.312c5.433-31.662-12.654-45.507-41.65-30.262l-84.697 44.53-84.697-44.53c-28.432-14.947-47.19-2.027-41.65 30.262l16.176 94.312-68.521 66.792c-23.002 22.42-16.51 44.252 15.908 48.962l94.694 13.76 42.35 85.81c14.217 28.804 36.986 29.374 51.483 0l42.35-85.81 94.693-13.76c31.788-4.619 39.367-26.097 15.907-48.962z m146.18 516.87H590.49c-11.596 0-20.893-8.118-23.62-18.866l-66.24-130.608s141.828-8.533 225.607-89.209l98.934 199.642c2.932 4.076 5.02 8.812 5.02 14.218-0.001 13.708-11.115 24.822-24.824 24.822zM456.854 682.222l-66.24 130.608c-2.727 10.748-12.023 18.865-23.62 18.865H152.118c-13.709 0-24.824-11.115-24.824-24.823 0-5.406 2.088-10.142 5.022-14.218l98.933-199.642c83.777 80.677 225.605 89.21 225.605 89.21z"  horiz-adv-x="1024" />

    


  </font>
</defs>
</svg>
